<mxfile host="app.diagrams.net" modified="2023-07-11T19:06:16.234Z" agent="Mozilla/5.0 (Windows NT 10.0; Win64; x64; rv:108.0) Gecko/20100101 Firefox/108.0" etag="y87LGUYeNFa-2Xw2ooKN" version="21.6.2" type="github">
  <diagram name="Página-1" id="b8YcbXR7Y7qSeNkCCbxS">
    <mxGraphModel dx="1793" dy="2147" grid="1" gridSize="10" guides="1" tooltips="1" connect="1" arrows="1" fold="1" page="1" pageScale="1" pageWidth="827" pageHeight="1169" math="0" shadow="0">
      <root>
        <mxCell id="0" />
        <mxCell id="1" parent="0" />
        <mxCell id="XGD5p14gLCvBRw289Krq-1" value="Criar oferta de passagem ou produto" style="ellipse;whiteSpace=wrap;html=1;fillColor=#f8cecc;strokeColor=#b85450;" vertex="1" parent="1">
          <mxGeometry x="270" y="530" width="120" height="80" as="geometry" />
        </mxCell>
        <mxCell id="XGD5p14gLCvBRw289Krq-2" value="DolarPriceProvider" style="rounded=0;whiteSpace=wrap;html=1;fillColor=#fff2cc;strokeColor=#d6b656;" vertex="1" parent="1">
          <mxGeometry x="240" y="910" width="120" height="60" as="geometry" />
        </mxCell>
        <mxCell id="XGD5p14gLCvBRw289Krq-3" value="" style="rounded=0;whiteSpace=wrap;html=1;fillColor=#fff2cc;strokeColor=#d6b656;" vertex="1" parent="1">
          <mxGeometry x="420" y="910" width="120" height="60" as="geometry" />
        </mxCell>
        <mxCell id="XGD5p14gLCvBRw289Krq-4" value="Criar pedido de passagem ou produto" style="ellipse;whiteSpace=wrap;html=1;fillColor=#f8cecc;strokeColor=#b85450;" vertex="1" parent="1">
          <mxGeometry x="750" y="530" width="120" height="80" as="geometry" />
        </mxCell>
        <mxCell id="XGD5p14gLCvBRw289Krq-5" value="Consultar pedido de passagem ou produto" style="ellipse;whiteSpace=wrap;html=1;fillColor=#f8cecc;strokeColor=#b85450;" vertex="1" parent="1">
          <mxGeometry x="500" y="530" width="120" height="80" as="geometry" />
        </mxCell>
        <mxCell id="XGD5p14gLCvBRw289Krq-6" value="Consultar oferta de passagem ou produto" style="ellipse;whiteSpace=wrap;html=1;fillColor=#f8cecc;strokeColor=#b85450;" vertex="1" parent="1">
          <mxGeometry x="960" y="530" width="120" height="80" as="geometry" />
        </mxCell>
        <mxCell id="XGD5p14gLCvBRw289Krq-11" value="&lt;div&gt;ProdutoServiçoRepositoryDatabase&lt;/div&gt;" style="rounded=0;whiteSpace=wrap;html=1;fillColor=#d5e8d4;strokeColor=#82b366;" vertex="1" parent="1">
          <mxGeometry x="370" y="280" width="220" height="60" as="geometry" />
        </mxCell>
        <mxCell id="XGD5p14gLCvBRw289Krq-12" value="Interface Adapters&lt;br&gt;gateways" style="rounded=0;whiteSpace=wrap;html=1;fillColor=#d5e8d4;strokeColor=#82b366;" vertex="1" parent="1">
          <mxGeometry x="10" y="270" width="90" height="60" as="geometry" />
        </mxCell>
        <mxCell id="XGD5p14gLCvBRw289Krq-13" value="&lt;div&gt;Usecases&lt;/div&gt;&lt;div&gt;applicacion business rules&lt;/div&gt;" style="ellipse;whiteSpace=wrap;html=1;fillColor=#f8cecc;strokeColor=#b85450;" vertex="1" parent="1">
          <mxGeometry y="540" width="120" height="80" as="geometry" />
        </mxCell>
        <mxCell id="XGD5p14gLCvBRw289Krq-14" value="&lt;div&gt;Entities&lt;/div&gt;&lt;div&gt;enterprise business rule&lt;br&gt;&lt;/div&gt;" style="rounded=0;whiteSpace=wrap;html=1;fillColor=#fff2cc;strokeColor=#d6b656;" vertex="1" parent="1">
          <mxGeometry y="910" width="120" height="60" as="geometry" />
        </mxCell>
        <mxCell id="XGD5p14gLCvBRw289Krq-15" value="&lt;div&gt;MessageRepositoryDatabase&lt;/div&gt;" style="rounded=0;whiteSpace=wrap;html=1;fillColor=#d5e8d4;strokeColor=#82b366;" vertex="1" parent="1">
          <mxGeometry x="1060" y="270" width="220" height="60" as="geometry" />
        </mxCell>
        <mxCell id="XGD5p14gLCvBRw289Krq-16" value="&lt;div&gt;MessageRepositoryDatabase&lt;/div&gt;" style="rounded=0;whiteSpace=wrap;html=1;fillColor=#d5e8d4;strokeColor=#82b366;" vertex="1" parent="1">
          <mxGeometry x="680" y="280" width="220" height="60" as="geometry" />
        </mxCell>
        <mxCell id="XGD5p14gLCvBRw289Krq-17" value="" style="endArrow=none;html=1;rounded=0;" edge="1" parent="1">
          <mxGeometry width="50" height="50" relative="1" as="geometry">
            <mxPoint x="140" y="1060" as="sourcePoint" />
            <mxPoint x="140" y="-110" as="targetPoint" />
          </mxGeometry>
        </mxCell>
        <mxCell id="XGD5p14gLCvBRw289Krq-18" value="" style="endArrow=classic;html=1;rounded=0;" edge="1" parent="1" source="XGD5p14gLCvBRw289Krq-5" target="XGD5p14gLCvBRw289Krq-11">
          <mxGeometry width="50" height="50" relative="1" as="geometry">
            <mxPoint x="660" y="670" as="sourcePoint" />
            <mxPoint x="710" y="620" as="targetPoint" />
          </mxGeometry>
        </mxCell>
        <mxCell id="XGD5p14gLCvBRw289Krq-19" value="" style="endArrow=classic;html=1;rounded=0;" edge="1" parent="1" source="XGD5p14gLCvBRw289Krq-1" target="XGD5p14gLCvBRw289Krq-2">
          <mxGeometry width="50" height="50" relative="1" as="geometry">
            <mxPoint x="354" y="541" as="sourcePoint" />
            <mxPoint x="429" y="340" as="targetPoint" />
          </mxGeometry>
        </mxCell>
        <mxCell id="XGD5p14gLCvBRw289Krq-20" value="&lt;div&gt;Frameworks and drivers&lt;/div&gt;" style="rounded=0;whiteSpace=wrap;html=1;fillColor=#dae8fc;strokeColor=#6c8ebf;" vertex="1" parent="1">
          <mxGeometry x="10" y="50" width="90" height="60" as="geometry" />
        </mxCell>
        <mxCell id="XGD5p14gLCvBRw289Krq-21" value="Express" style="rounded=0;whiteSpace=wrap;html=1;fillColor=#dae8fc;strokeColor=#6c8ebf;" vertex="1" parent="1">
          <mxGeometry x="780" y="-70" width="90" height="60" as="geometry" />
        </mxCell>
        <mxCell id="XGD5p14gLCvBRw289Krq-22" value="Node" style="rounded=0;whiteSpace=wrap;html=1;fillColor=#dae8fc;strokeColor=#6c8ebf;" vertex="1" parent="1">
          <mxGeometry x="970" y="-190" width="90" height="60" as="geometry" />
        </mxCell>
        <mxCell id="XGD5p14gLCvBRw289Krq-23" value="ExpressAdapter" style="rounded=0;whiteSpace=wrap;html=1;fillColor=#dae8fc;strokeColor=#6c8ebf;" vertex="1" parent="1">
          <mxGeometry x="460" y="-190" width="220" height="60" as="geometry" />
        </mxCell>
        <mxCell id="XGD5p14gLCvBRw289Krq-24" value="HTTP" style="rounded=0;whiteSpace=wrap;html=1;fillColor=#d5e8d4;strokeColor=#82b366;" vertex="1" parent="1">
          <mxGeometry x="765" y="20" width="90" height="60" as="geometry" />
        </mxCell>
        <mxCell id="XGD5p14gLCvBRw289Krq-25" value="CriarOfertaController" style="rounded=0;whiteSpace=wrap;html=1;fillColor=#d5e8d4;strokeColor=#82b366;" vertex="1" parent="1">
          <mxGeometry x="170" y="270" width="90" height="60" as="geometry" />
        </mxCell>
        <mxCell id="XGD5p14gLCvBRw289Krq-26" value="" style="endArrow=classic;html=1;rounded=0;" edge="1" parent="1" source="XGD5p14gLCvBRw289Krq-25" target="XGD5p14gLCvBRw289Krq-1">
          <mxGeometry width="50" height="50" relative="1" as="geometry">
            <mxPoint x="354" y="541" as="sourcePoint" />
            <mxPoint x="429" y="340" as="targetPoint" />
          </mxGeometry>
        </mxCell>
        <mxCell id="XGD5p14gLCvBRw289Krq-27" value="" style="endArrow=classic;html=1;rounded=0;" edge="1" parent="1" source="XGD5p14gLCvBRw289Krq-25" target="XGD5p14gLCvBRw289Krq-24">
          <mxGeometry width="50" height="50" relative="1" as="geometry">
            <mxPoint x="238" y="340" as="sourcePoint" />
            <mxPoint x="324" y="542" as="targetPoint" />
          </mxGeometry>
        </mxCell>
        <mxCell id="XGD5p14gLCvBRw289Krq-28" value="Main" style="rounded=0;whiteSpace=wrap;html=1;" vertex="1" parent="1">
          <mxGeometry x="780" y="-390" width="90" height="70" as="geometry" />
        </mxCell>
      </root>
    </mxGraphModel>
  </diagram>
</mxfile>
